<svg version="1" xmlns="http://www.w3.org/2000/svg" width="1201.333" height="1201.333" viewBox="0 0 901.000000 901.000000"><path d="M432 10c-38.1 1.7-78 8.8-113.5 20.1C142.4 86.1 19.9 246 12.1 429.9c-4.6 106.9 28 208.4 93.8 292.1C207.7 851.5 373.2 912.8 536 881.3c118.2-22.8 223.2-94.8 287.7-197.3 24.6-39.1 43-82.2 54.2-126.9 10-40 13.8-74.4 12.8-118-.8-36.9-4.6-64.9-13.2-98.6-15.2-59.3-43.6-116.9-80.3-162.8l-5.5-6.9 5.4-5.2c3-2.9 17.2-16.6 31.6-30.6l26.3-25.3-4.7-5.1c-2.6-2.8-11.8-12.5-20.5-21.4l-15.9-16.4-18.5 17.9c-10.2 9.8-24.3 23.3-31.4 30.1l-12.9 12.3-11.8-10.1C683.2 68.7 617.7 35.7 547 20.1c-30.6-6.7-48.8-8.9-90-10.5-4.7-.2-15.9 0-25 .4zm66 62.4c46.5 6.7 80.6 16.8 119.5 35.5 29.2 14 59.7 34.5 86 57.5l4 3.5-2.5 2.4c-1.4 1.3-22.3 21.4-46.5 44.7-24.2 23.3-53.4 51.6-65 63-11.5 11.4-40.5 39.5-64.3 62.4L486 383.2l-6.3-2.1c-15.4-5.2-29.2-6.3-42.9-3.7-32.3 6.4-56.9 28.8-66 60.3-1.9 6.6-2.3 10.1-2.2 22.3 0 12.8.4 15.6 2.7 23.3 8.8 28.8 29.9 49 59.7 57.3 10 2.8 31.9 2.6 42.4-.4 28.1-8.1 49.6-29.3 58.2-57.7 2.4-8 2.7-10.6 2.7-23 0-12.5-.3-15-2.7-23-1.6-5-2.9-9.5-3-10-.1-1 61.6-61.1 116.9-114 12.1-11.5 39.9-38.3 61.9-59.5 21.9-21.2 40.4-38.6 41-38.8 1.4-.3 15.6 18.9 24.3 32.8 32.9 52.4 51.9 109.6 57.3 172.5 1.2 14.8 1.3 46.7 0 59.5-.5 5.2-1.2 12.9-1.5 17-1.7 22.3-10.4 58.3-20.6 85.7-41.7 111.9-133.3 198-246.9 232.2-64.4 19.3-135.3 20.9-201.1 4.6C202.8 779.4 87.5 645.1 72.9 484c-1.4-15.8-1.4-59.5.1-73.1 7.3-69.4 32.8-134.5 74.3-189.8 14.6-19.4 36.6-43 55.7-59.6 56.3-48.9 133.4-82.6 204.5-89.5 6.1-.5 12.8-1.2 15-1.4 10-1 65.5.3 75.5 1.8zm-36.5 365.7c10.9 5.1 16.6 19.5 12.1 30.3-9.8 23.5-45.6 17.1-45.9-8.3-.1-9.7 5.9-18.8 14.7-22.7 4.8-2.1 13.9-1.7 19.1.7z"/></svg>