<?xml version="1.0" encoding="utf-8"?>
<!-- Generator: Adobe Illustrator 22.1.0, SVG Export Plug-In . SVG Version: 6.00 Build 0)  -->
<svg version="1.1" id="Layer_1" xmlns="http://www.w3.org/2000/svg" xmlns:xlink="http://www.w3.org/1999/xlink" x="0px" y="0px"
	 viewBox="0 0 900.5 894.2" style="enable-background:new 0 0 900.5 894.2;" xml:space="preserve">
<style type="text/css">
	.st0{clip-path:url(#SVGID_2_);}
	.st1{fill:#2A6CFF;}
	.st2{clip-path:url(#SVGID_4_);}
	.st3{fill:#A4E900;}
	.st4{clip-path:url(#SVGID_6_);}
	.st5{fill:#C9E9FF;}
	.st6{clip-path:url(#SVGID_8_);}
	.st7{fill:#74B7FF;}
	.st8{clip-path:url(#SVGID_10_);}
	.st9{fill:#00AA09;}
	.st10{fill:none;stroke:#000000;stroke-width:60;stroke-miterlimit:10;}
</style>
<title>logo</title>
<g>
	<defs>
		<circle id="SVGID_1_" cx="451.1" cy="456.1" r="400"/>
	</defs>
	<clipPath id="SVGID_2_">
		<use xlink:href="#SVGID_1_"  style="overflow:visible;"/>
	</clipPath>
	<g class="st0">
		
			<rect x="597.4" y="-170.1" transform="matrix(0.7071 -0.7071 0.7071 0.7071 35.8523 546.2939)" class="st1" width="160" height="800"/>
	</g>
</g>
<g>
	<defs>
		<circle id="SVGID_3_" cx="451.1" cy="456.1" r="400"/>
	</defs>
	<clipPath id="SVGID_4_">
		<use xlink:href="#SVGID_3_"  style="overflow:visible;"/>
	</clipPath>
	<g class="st2">
		
			<rect x="258" y="169.3" transform="matrix(0.7071 -0.7071 0.7071 0.7071 -303.5572 405.7069)" class="st3" width="160" height="800"/>
	</g>
</g>
<g>
	<defs>
		<circle id="SVGID_5_" cx="451.1" cy="456.1" r="400"/>
	</defs>
	<clipPath id="SVGID_6_">
		<use xlink:href="#SVGID_5_"  style="overflow:visible;"/>
	</clipPath>
	<g class="st4">
		
			<rect x="371.1" y="56.1" transform="matrix(0.7071 -0.7071 0.7071 0.7071 -190.4159 452.5739)" class="st5" width="160" height="800"/>
	</g>
</g>
<g>
	<defs>
		<circle id="SVGID_7_" cx="451.1" cy="456.1" r="400"/>
	</defs>
	<clipPath id="SVGID_8_">
		<use xlink:href="#SVGID_7_"  style="overflow:visible;"/>
	</clipPath>
	<g class="st6">
		
			<rect x="484.2" y="-57" transform="matrix(0.7071 -0.7071 0.7071 0.7071 -77.2889 499.441)" class="st7" width="160" height="800"/>
	</g>
</g>
<g>
	<defs>
		<circle id="SVGID_9_" cx="451.1" cy="456.1" r="400"/>
	</defs>
	<clipPath id="SVGID_10_">
		<use xlink:href="#SVGID_9_"  style="overflow:visible;"/>
	</clipPath>
	<g class="st8">
		
			<rect x="144.8" y="282.4" transform="matrix(0.7071 -0.7071 0.7071 0.7071 -416.6984 358.854)" class="st9" width="160" height="800"/>
	</g>
</g>
<line class="st10" x1="490.3" y1="416.9" x2="834.3" y2="84.9"/>
<circle class="st10" cx="451.1" cy="456.2" r="53.7"/>
<circle class="st10" cx="451.1" cy="446.2" r="410"/>
</svg>
